<svg role="img" viewBox="0 0 24 24" xmlns="http://www.w3.org/2000/svg"><title>RAD Studio icon</title><path d="m 12.000008,0.00391171 c -6.6262911,0 -12,5.36944789 -12,12.00000029 0,6.627089 5.3737089,12 12,12 6.626824,0 12,-5.372911 12,-12 0,-6.6305524 -5.373176,-12.00000029 -12,-12.00000029 z M 3.7617268,7.201177 h 4.4921878 c 2.0021084,0 3.2265624,1.3095711 3.2265624,3.095703 0,1.699316 -1.06429,2.606825 -2.1015629,2.851563 l 2.0546879,3.480469 3.361328,-4.748047 -3.269531,-4.679688 h 2.433593 l 2.203125,3.283204 2.175782,-3.283204 h 2.46289 l -3.269531,4.666016 3.486328,4.939453 h -2.449219 l -2.40625,-3.513672 -2.419921,3.513672 H 11.53907 11.308602 9.1914144 L 7.3046955,13.394537 H 5.8066486 v 3.412109 H 3.7617268 Z m 2.0449218,1.7988284 v 2.5937506 h 2.1464846 c 0.8210296,0 1.4394527,-0.490492 1.4394527,-1.296876 0,-0.8066486 -0.6184231,-1.2968746 -1.4394527,-1.2968746 z" /></svg>